<?xml version="1.0" encoding="iso-8859-1"?>
<!-- Generator: Adobe Illustrator 19.0.0, SVG Export Plug-In . SVG Version: 6.00 Build 0)  -->
<svg version="1.1" id="Layer_1" xmlns="http://www.w3.org/2000/svg" xmlns:xlink="http://www.w3.org/1999/xlink" x="0px" y="0px"
	 viewBox="0 0 512 512" style="enable-background:new 0 0 512 512;" xml:space="preserve">
<polygon style="fill:#AC92EB;" points="479,400.078 25.008,400.078 8.664,375.078 8.664,133.078 33.992,104.078 479,104.078 
	497.344,125.078 497.344,384.078 "/>
<rect x="8.664" y="168.08" style="fill:#434A54;" width="488.68" height="70"/>
<path d="M149.336,352h-96c-5.891,0-10.672,4.766-10.672,10.672c0,5.875,4.781,10.656,10.672,10.656h96
	c5.891,0,10.664-4.781,10.664-10.656C160,356.766,155.227,352,149.336,352z"/>
<path d="M458.656,309.328h-64c-5.875,0-10.656,4.781-10.656,10.672s4.781,10.672,10.656,10.672h64
	c5.906,0,10.688-4.781,10.688-10.672S464.562,309.328,458.656,309.328z"/>
<path d="M245.336,309.328h-192c-5.891,0-10.672,4.781-10.672,10.672s4.781,10.672,10.672,10.672h192
	c5.891,0,10.664-4.781,10.664-10.672S251.227,309.328,245.336,309.328z"/>
<path d="M469.344,96H42.664C19.102,96,0,115.109,0,138.672v234.656C0,396.891,19.102,416,42.664,416h426.68
	C492.906,416,512,396.891,512,373.328V138.672C512,115.109,492.906,96,469.344,96z M83.367,181.328h30.172L70.875,224H40.703
	L83.367,181.328z M21.336,213.203v-31.875h31.859L21.336,213.203z M143.711,181.328h30.172L131.211,224h-30.172L143.711,181.328z
	 M204.047,181.328h30.172L191.555,224h-30.172L204.047,181.328z M264.391,181.328h30.172L251.891,224h-30.172L264.391,181.328z
	 M324.719,181.328h30.188L312.234,224h-30.172L324.719,181.328z M385.062,181.328h30.172L372.562,224h-30.156L385.062,181.328z
	 M445.406,181.328h30.172L432.906,224H402.75L445.406,181.328z M490.656,196.422V224h-27.578L490.656,196.422z M42.664,117.328
	h426.68c11.75,0,21.312,9.578,21.312,21.344V160H21.336v-21.328C21.336,126.906,30.906,117.328,42.664,117.328z M469.344,394.672
	H42.664c-11.758,0-21.328-9.578-21.328-21.344v-128h469.32v128C490.656,385.094,481.094,394.672,469.344,394.672z"/>
<g>
</g>
<g>
</g>
<g>
</g>
<g>
</g>
<g>
</g>
<g>
</g>
<g>
</g>
<g>
</g>
<g>
</g>
<g>
</g>
<g>
</g>
<g>
</g>
<g>
</g>
<g>
</g>
<g>
</g>
</svg>
