<?xml version="1.0" encoding="iso-8859-1"?>
<!-- Generator: Adobe Illustrator 19.0.0, SVG Export Plug-In . SVG Version: 6.00 Build 0)  -->
<svg version="1.1" id="Layer_1" xmlns="http://www.w3.org/2000/svg" xmlns:xlink="http://www.w3.org/1999/xlink" x="0px" y="0px"
	 viewBox="0 0 512 512" style="enable-background:new 0 0 512 512;" xml:space="preserve">
<path style="fill:#F8F8F8;" d="M430.189,502.23H81.811c-23.162,0-41.94-18.777-41.94-41.94V115.316
	c0-23.162,18.777-41.94,41.94-41.94h348.378c23.162,0,41.94,18.777,41.94,41.94V460.29
	C472.129,483.452,453.353,502.23,430.189,502.23z"/>
<path style="fill:#E1E1E4;" d="M430.189,73.375h-40.843c23.164,0,41.94,18.777,41.94,41.94v344.974
	c0,23.164-18.776,41.94-41.94,41.94h40.843c23.164,0,41.94-18.776,41.94-41.94V115.316
	C472.129,92.153,453.353,73.375,430.189,73.375z"/>
<path style="fill:#956EC4;" d="M472.129,204.68H39.871v-89.464c0-23.108,18.732-41.84,41.84-41.84h348.579
	c23.108,0,41.84,18.732,41.84,41.84V204.68z"/>
<path style="fill:#6D2C92;" d="M389.45,73.375h40.843c23.104,0,41.836,18.733,41.836,41.841v89.464h-40.843v-89.464
	C431.286,92.108,412.554,73.375,389.45,73.375z"/>
<g>
	<path style="fill:#FFD92D;" d="M146.659,128.897L146.659,128.897c-13.628,0-24.676-11.048-24.676-24.676V34.447
		c0-13.628,11.048-24.676,24.676-24.676l0,0c13.628,0,24.676,11.048,24.676,24.676v69.774
		C171.335,117.85,160.288,128.897,146.659,128.897z"/>
	<path style="fill:#FFD92D;" d="M361.086,128.897L361.086,128.897c-13.628,0-24.676-11.048-24.676-24.676V34.447
		c0-13.628,11.048-24.676,24.676-24.676l0,0c13.628,0,24.676,11.048,24.676,24.676v69.774
		C385.762,117.85,374.715,128.897,361.086,128.897z"/>
</g>
<g>
	<path style="fill:#FFFFFF;" d="M82.042,183.374c-5.396-0.014-9.759-4.399-9.746-9.795l0.163-27.056
		c0.014-5.397,4.399-9.759,9.795-9.746c5.396,0.013,9.759,4.399,9.746,9.795l-0.163,27.056
		C91.824,179.024,87.437,183.387,82.042,183.374z"/>
	<path style="fill:#FFFFFF;" d="M82.296,124.426c-5.396-0.014-9.759-4.399-9.746-9.795l0.017,0.977
		c0.014-5.397,4.399-9.759,9.795-9.746c5.396,0.014,9.759,4.399,9.746,9.795l-0.017-0.977
		C92.078,120.076,87.691,124.439,82.296,124.426z"/>
</g>
<g>
	<path style="fill:#1C2042;" d="M472.129,347.843c-5.396,0-9.77,4.375-9.77,9.77V460.29c0,17.739-14.432,32.169-32.169,32.169
		H81.811c-17.738,0-32.169-14.432-32.169-32.169v-77.056c0-5.396-4.375-9.77-9.77-9.77s-9.77,4.375-9.77,9.77v77.056
		c0,28.514,23.198,51.71,51.71,51.71h348.378c28.514,0,51.71-23.198,51.71-51.71V357.613
		C481.899,352.217,477.525,347.843,472.129,347.843z"/>
	<path style="fill:#1C2042;" d="M472.129,259.691c-5.396,0-9.77,4.375-9.77,9.77v7.816c0,5.396,4.375,9.77,9.77,9.77
		s9.77-4.375,9.77-9.77v-7.816C481.899,264.066,477.525,259.691,472.129,259.691z"/>
	<path style="fill:#1C2042;" d="M211.573,389.297c-6.864,0-13.538-2.548-18.633-7.654c-4.307-4.307-11.385-4.307-15.69,0
		c-4.328,4.317-4.328,11.385,0,15.702c9.423,9.412,21.98,14.326,34.323,14.326c12.557,0,25.114-4.914,34.536-14.326
		c9.614-9.614,14.326-22.171,14.326-34.536c0-12.354-4.711-24.911-14.326-34.333c-3.923-4.114-8.634-7.259-13.729-9.614
		l24.73-25.497c0.767-0.788,1.364-1.769,1.962-2.75c0.767-1.567,1.364-3.336,1.364-5.298c0-6.086-4.903-10.99-11.192-10.99h-57.859
		c-6.097,0-11,4.903-11,10.99c0,6.278,4.903,11.181,11,11.181h31.764l-19.997,20.402c-4.136,4.519-4.136,11.384,0.384,15.702
		c0,0.192,0,0.192,0.192,0.192c1.961,2.355,4.903,3.731,8.059,3.539c6.864,0.192,13.538,2.547,18.633,7.845
		c5.286,5.095,7.845,11.767,7.845,18.633c0,6.876-2.559,13.538-7.845,18.835C225.11,386.748,218.459,389.297,211.573,389.297z"/>
	<path style="fill:#1C2042;" d="M332.245,284.711c-0.214-5.767-4.944-10.38-10.763-10.38c-1.404,0-2.742,0.276-3.973,0.766
		c-0.051,0.007-0.103,0.017-0.103,0.017c-0.115,0.033-0.168,0.074-0.224,0.115c-0.478,0.208-0.934,0.456-1.374,0.73
		c-0.073,0.03-0.138,0.068-0.191,0.116c-0.053,0.035-0.111,0.064-0.164,0.1l-23.997,14.247c-5.095,2.942-6.864,9.807-3.517,14.71
		c1.961,3.528,5.479,5.49,9.209,5.49c1.769,0,3.731-0.384,5.5-1.567l7.845-4.509v96.53c0,6.076,4.712,10.788,10.788,10.788
		c5.884,0,10.979-4.712,10.979-10.788v-115.76v-0.039c0.001-0.055,0.008-0.107,0.008-0.16c0-0.055-0.008-0.107-0.008-0.16
		c0-0.076,0-0.152,0-0.227L332.245,284.711z"/>
	<path style="fill:#1C2042;" d="M430.189,63.605h-32.741V34.447C397.448,15.453,381.995,0,363.001,0
		c-18.995,0-34.447,15.453-34.447,34.447v29.159H183.02V34.447C183.02,15.453,167.568,0,148.574,0s-34.447,15.453-34.447,34.447
		v29.159H81.811c-28.513,0-51.71,23.198-51.71,51.71v200.175c0,5.396,4.375,9.77,9.77,9.77s9.77-4.375,9.77-9.77V214.185h412.717
		v7.512c0,5.396,4.375,9.77,9.77,9.77s9.77-4.375,9.77-9.77v-106.38C481.899,86.802,458.703,63.605,430.189,63.605z M348.095,34.447
		c0-8.219,6.687-14.906,14.906-14.906s14.906,6.687,14.906,14.906v69.775c0,8.219-6.687,14.906-14.906,14.906
		c-8.22,0-14.906-6.687-14.906-14.906V34.447z M133.668,34.447c0-8.219,6.687-14.906,14.906-14.906s14.906,6.687,14.906,14.906
		v69.775c0,8.219-6.687,14.906-14.906,14.906s-14.906-6.687-14.906-14.906V34.447z M49.642,194.644v-79.328
		c0-17.739,14.432-32.169,32.169-32.169h32.317v21.075c0,18.994,15.453,34.447,34.447,34.447s34.447-15.453,34.447-34.447V83.146
		h145.534v21.075c0,18.994,15.453,34.447,34.447,34.447s34.447-15.453,34.447-34.447V83.146h32.741
		c17.739,0,32.169,14.432,32.169,32.169v79.328H49.642z"/>
</g>
<g>
</g>
<g>
</g>
<g>
</g>
<g>
</g>
<g>
</g>
<g>
</g>
<g>
</g>
<g>
</g>
<g>
</g>
<g>
</g>
<g>
</g>
<g>
</g>
<g>
</g>
<g>
</g>
<g>
</g>
</svg>
